<?xml version="1.0" encoding="UTF-8"?>
<svg id="Capa_1" xmlns="http://www.w3.org/2000/svg" version="1.1" viewBox="0 0 512 141.8">
  <!-- Generator: Adobe Illustrator 30.3.0, SVG Export Plug-In . SVG Version: 2.1.3 Build 182)  -->
  <defs>
    <style>
      .st0 {
        fill: #fff;
      }

      .st1 {
        fill: #48a9a6;
      }

      .st2 {
        fill: #2a2d43;
      }

      .st3 {
        fill: #f18947;
      }
    </style>
  </defs>
  <g>
    <circle class="st3" cx="64.6" cy="70.5" r="50.1"/>
    <g>
      <path class="st2" d="M47.7,38c2.8-.6,5.2,1.3,5.7,3.8s-1.1,5-3.7,5.6-5.1-1.1-5.6-3.5.8-5.3,3.6-5.9ZM47.9,39.9c-1.7.5-2.4,2.2-1.9,3.8s2,2.2,3.5,1.7,2.4-2,2-3.5-1.9-2.5-3.6-2Z"/>
      <path class="st2" d="M80.1,38c2.8-.5,5.1,1.4,5.5,3.9s-1.3,5.1-4,5.5-5-1.3-5.4-3.8,1.1-5.2,3.9-5.7ZM80,40c-1.7.6-2.3,2.3-1.8,3.7s2,2.1,3.5,1.8,2.3-2,1.9-3.5-2-2.5-3.6-2Z"/>
      <path class="st2" d="M47.4,93.7c2.7-.7,5.2,1,5.8,3.4s-.8,5.2-3.3,5.9c-2.5.7-5.1-.7-5.8-3.2s.5-5.3,3.3-6.1ZM47.6,95.4c-1.7.7-2.4,2.6-1.7,4.1s2.3,2.2,3.7,1.6,2.3-2.3,1.8-3.8-2.2-2.5-3.9-1.9Z"/>
      <path class="st2" d="M31.2,66c2.8-.8,5.3.7,6,3.4.6,2.4-.7,5-3.3,5.7s-5.2-.6-5.9-3.2.5-5.2,3.2-6ZM32.1,67.5c-1.8.3-2.8,2-2.4,3.6s1.8,2.7,3.5,2.3,2.7-1.8,2.4-3.5-1.7-2.7-3.4-2.4Z"/>
      <path class="st2" d="M79.8,93.6c2.8-.6,5.2,1.1,5.8,3.7s-1.1,5-3.6,5.6-5-1-5.7-3.3.7-5.4,3.5-6ZM83.7,99.8c.7-1.4.2-2.8-.8-3.6-1.1-.9-2.6-1.1-3.7-.3-1.7,1.2-1.6,3.5-.2,4.8s3.7,1,4.7-.9Z"/>
      <path class="st2" d="M95.3,66c2.7-.8,5.3.6,6,3.1s-.6,5.2-3.1,6-5-.5-5.9-2.9.3-5.3,3-6.2ZM98,73.2c1.9-.6,2.6-2.7,1.8-4.2s-2.6-2.1-4.2-1.2-2,2.4-1.4,3.7,2.2,2.3,3.8,1.7Z"/>
      <path class="st2" d="M73.1,99.2h-16.6c-.3-.1-.6-.7-.6-.9s.3-.7.6-.9h16.4c.6,0,.7,1.4.2,1.9Z"/>
      <path class="st2" d="M72.6,43.7h-15.7c-.4,0-.9-.6-.9-1s.4-1,1.1-1h15.3c.6,0,1.1.3,1.2.8s-.4,1.1-.8,1.1Z"/>
      <path class="st2" d="M45.4,90.7c.3.4,0,1.2-.4,1.4s-1,0-1.3-.3l-7.9-13.7c-.2-.3.1-1.1.4-1.2s1.1,0,1.3.4l7.8,13.4Z"/>
      <path class="st2" d="M37.7,63.7c-.3.5-.8.8-1.4.6s-.6-.8-.5-1.4l7.9-13.7c.3-.2.9-.4,1.3-.2s.5,1,.3,1.3l-7.7,13.3Z"/>
      <path class="st2" d="M93.8,63.3c-.3.5-.5.8-.8,1s-1-.2-1.2-.5l-7.8-13.5c-.2-.3,0-1,.4-1.2.4-.2,1.1,0,1.4.4l8,13.9Z"/>
      <path class="st2" d="M85.8,91.6c-.3.4-.9.7-1.2.6-.4-.2-.7-.8-.6-1.3l8-13.9c.4-.2,1.1-.2,1.4,0s.3.9.1,1.3l-7.7,13.3Z"/>
      <path class="st2" d="M88.3,109.2c.2.4,0,1.2-.3,1.4s-1.1,0-1.4-.4l-2.6-4.5c-.2-.3,0-1.1.2-1.4s1.1-.2,1.3,0l2.8,4.8Z"/>
      <path class="st2" d="M45.3,35c.3.6.4,1.2,0,1.5s-1.2.2-1.6-.3l-2.7-4.6c-.1-.2,0-1,.2-1.2s1.2-.2,1.3,0l2.6,4.5Z"/>
      <path class="st2" d="M42.8,110.4c-.2.3-1,.4-1.3.3s-.5-1-.3-1.4l2.6-4.5c.3-.5.9-.7,1.4-.4s.5.9.2,1.4l-2.7,4.6Z"/>
      <path class="st2" d="M85.6,36.3c-.2.3-.8.5-1.1.5s-.8-1-.6-1.3l2.8-4.9c.2-.3,1-.4,1.2-.2s.5,1,.4,1.3l-2.7,4.7Z"/>
      <path class="st2" d="M110.5,70.6c-.1.9-3.6,1.2-5.7.9s-.9-.6-.9-1,.5-1.1.9-1.1h4.9c.4,0,.9.8.8,1.1Z"/>
      <path class="st2" d="M24.4,71.5h-4.3c-.5,0-1-.4-1.1-.8s.4-1.2.9-1.2h4.5c.6,0,1.1.4,1.1,1s-.6,1-1.1,1Z"/>
    </g>
    <g>
      <path class="st2" d="M82.7,72v-11.2c1-.6,1.6-1.5,1.4-2.5-.2-1-1.1-1.6-2.2-1.6-1,0-1.8.7-1.9,1.8-.1.9.4,1.8,1.3,2.4v10.6c0,.4-.2.7-.7,1-2.3-6.9-8.6-11.6-15.9-11.6-7.2,0-13.5,4.6-15.8,11.6-.5-.2-.7-.7-.7-1.3v-10.4c1.1-.7,1.6-1.6,1.3-2.7-.3-.8-1-1.4-2.1-1.4-.9,0-1.8.7-2,1.8-.1.9.4,1.7,1.4,2.3v11.2c-.5.3-1.3.9-1.3,1.4v6.5c0,.7.8,1.6,1.4,1.8.8.2,1.7,0,2.3-.5,1.2,1.6,2.8,3.3,4.9,3.3h21.5c2.2,0,3.9-1.7,5-3.3.8.6,1.8.9,2.6.4.7-.4,1.1-1.2,1.1-2.1v-5.5c0-.8-.6-1.5-1.4-1.9ZM47.5,80.2c-.2,0-.8-.5-.8-.7v-5.5c0-.3.5-.8.8-.7.2,0,.6.5.6.7v5.5c0,.3-.4.8-.6.8ZM74.6,82.9h-19.5c-3.5,0-5.9-2.9-5.7-6.3.6-8.2,7.2-14.4,15.2-14.4,8.1,0,14.7,6.2,15.2,14.4.2,3.1-1.8,6.3-5.3,6.3ZM82.1,80.2c-.2,0-.8-.4-.8-.7v-5.5c0-.2.5-.8.8-.7.2,0,.6.5.6.8v5.4c0,.3-.4.8-.6.8Z"/>
      <path class="st2" d="M71.5,69.1h-13.4c-2.6,0-4.3,2.4-4.3,4.7,0,2.1,1.4,4.8,3.9,4.8h14.4c2.5-.6,4-2.7,3.8-5-.1-2.2-1.9-4.5-4.3-4.5ZM71.2,77.4h-12.9c-1.9,0-3.3-1.8-3.2-3.5,0-1.8,1.5-3.4,3.5-3.4h12.6c1.9,0,3.2,1.7,3.3,3.4,0,1.6-1.2,3.5-3.2,3.5Z"/>
      <path class="st2" d="M59.1,72c-1.2.5-1.6,1.9-1,3,.4.9,1.6,1.3,2.7.8,1-.4,1.5-1.7,1.1-2.7-.4-1-1.6-1.6-2.8-1.1Z"/>
      <path class="st2" d="M68.8,72c-1.2.5-1.6,1.9-1,3,.4.9,1.6,1.3,2.7.8,1-.4,1.5-1.7,1.1-2.7-.4-1-1.6-1.6-2.8-1.1Z"/>
    </g>
  </g>
  <g>
    <path class="st0" d="M255.4,88.7h-12.4s-9.3-13.5-9.3-13.5h-10s0,13.5,0,13.5h-11.5s0-48.7,0-48.7h23.4c3.3,0,6.5,1.1,9.4,2.2,6.2,2.9,9.5,8.6,9.6,15.4,0,6.9-3.5,12.9-10,15.5l10.9,15.6ZM242.9,57.4c0-4.5-3.2-7.8-7.6-8.2s-7.6-.2-11.7-.2v17.2c4.1,0,7.9,0,11.6-.2s7.7-3.9,7.6-8.6Z"/>
    <polygon class="st0" points="396.2 88.6 384.7 88.7 384.7 68.9 362.8 68.9 362.8 88.7 351.4 88.7 351.4 40 362.8 40 362.8 59.4 384.7 59.4 384.7 40 396.2 40 396.2 88.6"/>
    <path class="st1" d="M497.2,109.5l-258.9-1.3v-5.1s258.9,1.3,258.9,1.3c.3,1.6.3,2.9,0,5.1Z"/>
    <path class="st0" d="M495.4,70c0,11.3-8.2,19.6-19.4,19.2-4.1-.1-8-1.2-11-4.3v3.8c-.1,0-10.6,0-10.6,0v-51.3s11.1,0,11.1,0v17.4c3.4-3,7-3.9,11-4,11-.2,19,8.1,19,19.2ZM484.2,70c0-6-4.1-10.3-9.7-10.2s-9.3,4.7-9.2,10.4,4,10.1,9.7,10,9.2-4.4,9.2-10.2Z"/>
    <path class="st0" d="M291.7,86.8c-9.4,4.3-23.5,2.8-32.4-3l3.9-8.6c6.9,5.2,22.1,7.3,24.9,1.9.6-1.1.6-3.1-.3-4.1-1.5-1.6-3.6-2.3-5.7-2.9l-12.2-3.3c-3.2-.9-6.6-3.1-8.1-6.1-3.8-7.3-.3-15.7,7-18.9,8.8-3.8,21.2-2.8,29.2,2l-3.7,8.7c-6.6-4.1-18.3-5.9-21.8-1.1-.8,1.1-1.2,3.5-.2,4.6,1.4,1.6,3.6,2.3,5.7,2.9l12.1,3.2c3.2.9,6.7,2.9,8.3,6,3.9,7.1.4,15.5-6.7,18.7Z"/>
    <path class="st0" d="M444.5,51.3v37.4s-10.5,0-10.5,0l-.2-3.8c-3.7,3.5-7.8,4.4-12.7,4.3-7.8-.2-14.4-5.8-14.5-13.9l-.2-24h11s.1,21.1.1,21.1c0,2.8,1.7,5.7,4.1,6.6s5.6.8,8.1-.8,3.6-3.9,3.6-6.7v-20.3c.1,0,11.1,0,11.1,0Z"/>
    <path class="st0" d="M166.8,62.1v9s-20.1,0-20.1,0v17.6s-11.6,0-11.6,0v-31.1c.2-6.7,3.8-12.4,9.6-15.4,7.4-3.8,19.6-3.6,27.3.7l-3.5,9.1c-5-2.9-10.7-3.8-16.3-1.8s-5.9,6.6-5.6,12h20.1Z"/>
    <path class="st0" d="M329.1,88.7h-11.5s0-38.8,0-38.8c-4.9.7-9.1,2.3-13.4,4.6l-3.9-8.4c13.3-8.7,32.3-8.8,46.1,0l-3.8,8.5c-4.3-2.3-8.5-4-13.5-4.7v38.9Z"/>
    <polygon class="st0" points="203.8 88.7 175.5 88.7 175.5 79.7 183.9 79.7 183.9 49.1 175.5 49 175.5 40 203.8 40 203.8 49 195.4 49 195.4 79.7 203.8 79.7 203.8 88.7"/>
  </g>
</svg>